<svg width="163" height="167" viewBox="0 0 163 167" fill="none" xmlns="http://www.w3.org/2000/svg">
<rect x="22.9439" y="64.8285" width="8.49269" height="25.8178" transform="rotate(-162.036 22.9439 64.8285)" fill="#ED2089"/>
<rect x="36.3658" y="50.967" width="8.49269" height="25.8178" transform="rotate(107.964 36.3658 50.967)" fill="#ED2089"/>
<path d="M100.751 140.118C73.1648 145.341 46.5681 127.211 41.3454 99.6253C36.1228 72.0392 54.252 45.4424 81.8381 40.2198C109.424 34.9972 136.021 53.1264 141.244 80.7125C146.466 108.299 128.337 134.895 100.751 140.118ZM83.3769 48.348C60.2799 52.7207 45.1009 74.9894 49.4736 98.0864C53.8464 121.183 76.115 136.363 99.2121 131.99C122.309 127.617 137.488 105.348 133.115 82.2513C128.743 59.1543 106.474 43.9752 83.3769 48.348Z" fill="#ED2089"/>
</svg>
