<svg width="134" height="129" viewBox="0 0 134 129" fill="none" xmlns="http://www.w3.org/2000/svg">
<rect x="31.0713" y="114.042" width="8.49269" height="25.8178" transform="rotate(125.986 31.0713 114.042)" fill="#06B479" fill-opacity="0.6"/>
<rect x="22.042" y="96.9907" width="8.49269" height="25.8178" transform="rotate(35.986 22.042 96.9907)" fill="#06B479" fill-opacity="0.6"/>
<path d="M126.738 63.3452C123.17 91.1937 97.7022 110.877 69.8537 107.309C42.0052 103.741 22.322 78.2726 25.8901 50.4241C29.4581 22.5757 54.9262 2.89247 82.7747 6.46052C110.623 10.0286 130.306 35.4967 126.738 63.3452ZM34.0955 51.4755C31.1081 74.7922 47.5883 96.1159 70.905 99.1033C94.2217 102.091 115.545 85.6106 118.533 62.2939C121.52 38.9771 105.04 17.6534 81.7234 14.666C58.4067 11.6786 37.083 28.1587 34.0955 51.4755Z" fill="#06B479" fill-opacity="0.6"/>
</svg>
